<?xml version="1.0" encoding="utf-8"?>
<!-- Generator: Adobe Illustrator 26.0.1, SVG Export Plug-In . SVG Version: 6.00 Build 0)  -->
<svg version="1.1" xmlns="http://www.w3.org/2000/svg" xmlns:xlink="http://www.w3.org/1999/xlink" x="0px" y="0px"
	 viewBox="0 0 4.1 17.2" style="enable-background:new 0 0 4.1 17.2;" xml:space="preserve">
<style type="text/css">
	.st0{fill:#FFFFFF;}
	.st1{fill:none;}
	.st2{fill:#666666;}
	.st3{fill:#656D79;}
	.st4{fill:#333333;}
	.st5{opacity:0.2;fill:#57CAD9;}
	.st6{fill:none;stroke:#D2D2D2;stroke-miterlimit:10;}
	.st7{fill:#FF6000;}
	.st8{fill:#E7511E;}
	.st9{fill:none;stroke:#F6F6F6;stroke-width:3;stroke-miterlimit:10;}
	.st10{fill-rule:evenodd;clip-rule:evenodd;fill:#656D79;stroke:#656D79;stroke-width:0.5375;stroke-miterlimit:10;}
	.st11{fill:#57CAD9;}
	.st12{fill:#F6F6F6;stroke:#D2D2D2;stroke-width:0.6043;stroke-miterlimit:10;}
	.st13{fill:none;stroke:#CCCCCC;stroke-miterlimit:10;}
	.st14{fill:#00B22D;}
	.st15{fill:none;stroke:#C6C7C8;stroke-width:0.6975;stroke-miterlimit:10;}
	.st16{fill:none;stroke:#E2001A;stroke-miterlimit:10;}
	.st17{fill:#E2001A;}
	.st18{fill:#F5F5F5;}
	.st19{fill:#F6F6F6;}
	.st20{fill:url(#icon_00000038379831802335697700000017212235520853623697_);}
	.st21{fill:url(#SVGID_1_);}
	.st22{fill:none;stroke:#CCCCCC;stroke-width:2;stroke-linecap:round;stroke-linejoin:round;stroke-miterlimit:10;}
	.st23{fill:#F07F13;}
	.st24{opacity:0.4;fill:#FFFFFF;stroke:#D2D2D2;stroke-width:0.7515;stroke-miterlimit:10;}
	.st25{opacity:0.4;fill:#EAEAEA;stroke:#D2D2D2;stroke-width:0.7515;stroke-miterlimit:10;}
	.st26{fill:#FF6000;stroke:#FF6000;stroke-width:0.7515;stroke-miterlimit:10;}
	.st27{fill:#FFFFFF;stroke:#D2D2D2;stroke-miterlimit:10;}
	.st28{fill:url(#SVGID_00000006701441509982256930000010913523417313513374_);}
	.st29{fill:url(#icon_00000152244085192233158310000000053507291153816735_);}
	.st30{fill:none;stroke:#CCCCCC;stroke-width:3;stroke-linecap:round;stroke-linejoin:round;stroke-miterlimit:10;}
	.st31{fill:#C6C7C8;}
	.st32{fill:none;stroke:#D2D2D2;stroke-width:2;stroke-miterlimit:10;stroke-dasharray:2;}
	.st33{fill:none;stroke:#00B22D;stroke-width:2;stroke-miterlimit:10;stroke-dasharray:2;}
	.st34{fill:#D2D2D2;}
	.st35{opacity:0.1;fill:#656D79;}
	.st36{fill:none;stroke:#989898;stroke-width:0.4484;stroke-miterlimit:10;}
	.st37{clip-path:url(#SVGID_00000088110411520809216540000008497074424046759088_);}
	.st38{fill:#989898;}
	.st39{fill:#1D1D1B;}
	.st40{clip-path:url(#SVGID_00000085224230746515849450000013824648670654423206_);}
	.st41{display:none;}
	.st42{display:inline;opacity:0.2;}
	.st43{opacity:0.2;fill:#39A9DC;}
</style>
<g id="Layer_2">
</g>
<g id="Layer_5">
</g>
<g id="New">
	<g>
		<path class="st3" d="M3.5,16.6C3.2,17,2.7,17.2,2,17.2S0.9,17,0.6,16.6C0.2,16.2,0,15.6,0,15c0-0.6,0.2-1.1,0.6-1.5
			c0.4-0.4,0.9-0.6,1.5-0.6s1.1,0.2,1.5,0.6c0.4,0.4,0.6,0.9,0.6,1.5C4.1,15.6,3.9,16.2,3.5,16.6z"/>
		<path class="st3" d="M3.5,10.1c-0.4,0.4-0.9,0.6-1.5,0.6s-1.1-0.2-1.5-0.6C0.2,9.7,0,9.2,0,8.6C0,8,0.2,7.5,0.6,7.1
			C0.9,6.7,1.4,6.5,2,6.5s1.1,0.2,1.5,0.6C3.9,7.5,4.1,8,4.1,8.6C4.1,9.2,3.9,9.7,3.5,10.1z"/>
		<path class="st3" d="M3.5,3.6C3.2,4,2.7,4.2,2,4.2S0.9,4,0.6,3.6C0.2,3.2,0,2.7,0,2.1C0,1.5,0.2,1,0.6,0.6C0.9,0.2,1.4,0,2,0
			s1.1,0.2,1.5,0.6C3.9,1,4.1,1.5,4.1,2.1C4.1,2.7,3.9,3.2,3.5,3.6z"/>
	</g>
</g>
<g id="Layer_6">
</g>
<g id="Columns" class="st41">
</g>
<g id="Guides" class="st41">
</g>
</svg>
